# xmcd
#
# Track frame offsets: 
#        150
#        20798
#        34383
#        51182
#        64735
#        74544
#        86121
#        98780
#        109729
#        127295
#        141507
#        157705
#
# Disc length: 2277 seconds
#
# Revision: 0
# Processed by: cddbd v1.4PL0 Copyright (c) Steve Scherf et al.
# Submitted via: ExactAudioCopy v0.90b4
#
DISCID=b408e30c
DTITLE=Marie-Laure and Rüdiger mit Armand Jehle - Chansons de Toujours
DYEAR=2003
DGENRE=Chanson
TTITLE0=Douce France
TTITLE1=La vie en rose
TTITLE2=Les feuilles mortes
TTITLE3=Marjolaine
TTITLE4=Les Amoureux du Havre
TTITLE5=La Mer
TTITLE6=Les mots d'amour
TTITLE7=Je ne regrette rien
TTITLE8=Adelaide
TTITLE9=Emmenez-moi
TTITLE10=L'accordéoniste
TTITLE11=Trois petite notes de musique
EXTD=
EXTT0=
EXTT1=
EXTT2=
EXTT3=
EXTT4=
EXTT5=
EXTT6=
EXTT7=
EXTT8=
EXTT9=
EXTT10=
EXTT11=
PLAYORDER=
